<svg xmlns="http://www.w3.org/2000/svg" version="1.1" xmlns:xlink="http://www.w3.org/1999/xlink" xmlns:svgjs="http://svgjs.com/svgjs" width="1440" height="560" preserveAspectRatio="none" viewBox="0 0 1440 560"><g mask="url(&quot;#SvgjsMask1002&quot;)" fill="none"><rect width="1440" height="560" x="0" y="0" fill="rgba(237, 243, 255, 1)"></rect><path d="M -244.27410550809412,151 C -148.27,181.6 43.73,310 235.72589449190588,304 C 427.73,298 523.73,103.2 715.7258944919058,121 C 907.73,138.8 1003.73,363.2 1195.7258944919058,393 C 1387.73,422.8 1626.87,247.8 1675.7258944919058,270 C 1724.58,292.2 1487.15,457.2 1440,504" stroke="rgba(51, 0, 153, 1)" stroke-width="2"></path><path d="M -93.83618689430375,109 C 2.16,161.2 194.16,345.4 386.16381310569625,370 C 578.16,394.6 674.16,211.4 866.1638131056962,232 C 1058.16,252.6 1154.16,486 1346.1638131056961,473 C 1538.16,460 1807.4,164.6 1826.1638131056961,167 C 1844.93,169.4 1517.23,421.4 1440,485" stroke="rgba(51, 0, 153, 1)" stroke-width="2"></path><path d="M -427.02284831263506,214 C -331.02,245.6 -139.02,392.4 52.977151687364916,372 C 244.98,351.6 340.98,93.2 532.9771516873649,112 C 724.98,130.8 820.98,474 1012.9771516873649,466 C 1204.98,458 1407.57,102.8 1492.977151687365,72 C 1578.38,41.2 1450.6,264 1440,312" stroke="rgba(51, 0, 153, 1)" stroke-width="2"></path><path d="M -186.7327277100248,134 C -90.73,166.8 101.27,303.2 293.2672722899752,298 C 485.27,292.8 581.27,75.8 773.2672722899752,108 C 965.27,140.2 1061.27,462.2 1253.2672722899752,459 C 1445.27,455.8 1695.92,124.6 1733.2672722899752,92 C 1770.61,59.4 1498.65,255.2 1440,296" stroke="rgba(51, 0, 153, 1)" stroke-width="2"></path></g><defs><mask id="SvgjsMask1002"><rect width="1440" height="560" fill="#ffffff"></rect></mask></defs></svg>