<svg xmlns="http://www.w3.org/2000/svg" version="1.1" xmlns:xlink="http://www.w3.org/1999/xlink" xmlns:svgjs="http://svgjs.com/svgjs" width="1440" height="560" preserveAspectRatio="none" viewBox="0 0 1440 560"><g mask="url(&quot;#SvgjsMask1001&quot;)" fill="none"><rect width="1440" height="560" x="0" y="0" fill="rgba(237, 243, 255, 1)"></rect><path d="M945.78 142.86L986.3 142.86L986.3 183.38L945.78 183.38z" fill="rgba(0, 204, 102, 1)"></path><path d="M431.63 97.78L453.02 97.78L453.02 146.37L431.63 146.37z" stroke="rgba(0, 204, 102, 1)"></path><path d="M1098.08 381.06L1126.68 381.06L1126.68 405.33L1098.08 405.33z" fill="rgba(0, 204, 102, 1)"></path><path d="M1252.08 442.74a49.2 49.2 0 1 0 72.61-66.41z" fill="rgba(0, 204, 102, 1)"></path><path d="M378.37 506.76L433.77 506.76L433.77 562.16L378.37 562.16z" fill="rgba(0, 204, 102, 1)"></path><path d="M1225.68 453.71a28.64 28.64 0 1 0-11.08 56.19z" fill="rgba(0, 204, 102, 1)"></path><path d="M519.22 264.64L548.85 264.64L548.85 294.27L519.22 294.27z" stroke="rgba(0, 204, 102, 1)"></path><path d="M631.62 385.71 a34.91 34.91 0 1 0 69.82 0 a34.91 34.91 0 1 0 -69.82 0z" stroke="rgba(0, 204, 102, 1)"></path><path d="M529.22 451.62 a54.53 54.53 0 1 0 109.06 0 a54.53 54.53 0 1 0 -109.06 0z" fill="rgba(0, 204, 102, 1)"></path><path d="M1161.08 55.5L1207.09 55.5L1207.09 101.51L1161.08 101.51z" fill="rgba(0, 204, 102, 1)"></path><path d="M45.92 204.22 a39.73 39.73 0 1 0 79.46 0 a39.73 39.73 0 1 0 -79.46 0z" fill="rgba(0, 204, 102, 1)"></path><path d="M544.96 238.44L560.5 238.44L560.5 264.68L544.96 264.68z" stroke="rgba(0, 204, 102, 1)"></path><path d="M781.57 384.24L799.17 384.24L799.17 422.9L781.57 422.9z" stroke="rgba(0, 204, 102, 1)"></path><path d="M1362.57 294.73L1385.3 294.73L1385.3 333.07L1362.57 333.07z" stroke="rgba(0, 204, 102, 1)"></path><path d="M733.05 282.34 a6.57 6.57 0 1 0 13.14 0 a6.57 6.57 0 1 0 -13.14 0z" stroke="rgba(0, 204, 102, 1)"></path><path d="M673.49 167.66L725.05 167.66L725.05 219.22L673.49 219.22z" fill="rgba(0, 204, 102, 1)"></path><path d="M640.19 542.51L657.2 542.51L657.2 558.73L640.19 558.73z" fill="rgba(0, 204, 102, 1)"></path><path d="M339.93 438.96 a17.89 17.89 0 1 0 35.78 0 a17.89 17.89 0 1 0 -35.78 0z" stroke="rgba(0, 204, 102, 1)"></path><path d="M1059.75 331.64 a24.21 24.21 0 1 0 48.42 0 a24.21 24.21 0 1 0 -48.42 0z" fill="rgba(0, 204, 102, 1)"></path><path d="M974.46 387.24L987.19 387.24L987.19 413.7L974.46 413.7z" stroke="rgba(0, 204, 102, 1)"></path><path d="M391.94 536.58a0.95 0.95 0 1 0 1.66 0.93z" fill="rgba(0, 204, 102, 1)"></path><path d="M80.87 352.66L84.45 352.66L84.45 356.24L80.87 356.24z" fill="rgba(0, 204, 102, 1)"></path><path d="M299.71 359.33a51.28 51.28 0 1 0-99.59 24.52z" fill="rgba(0, 204, 102, 1)"></path><path d="M1346.8 287.26L1356.91 287.26L1356.91 297.37L1346.8 297.37z" stroke="rgba(0, 204, 102, 1)"></path><path d="M1401.94 544.35a27.06 27.06 0 1 0-53.95-4.32z" stroke="rgba(0, 204, 102, 1)"></path><path d="M731.96 500.87a41.78 41.78 0 1 0-60.42 57.71z" stroke="rgba(0, 204, 102, 1)"></path><path d="M1319.9 126.38L1358.91 126.38L1358.91 165.39L1319.9 165.39z" stroke="rgba(0, 204, 102, 1)"></path><path d="M1348.12 437.64 a53.95 53.95 0 1 0 107.9 0 a53.95 53.95 0 1 0 -107.9 0z" stroke="rgba(0, 204, 102, 1)"></path><path d="M798.18 447.75L799.87 447.75L799.87 490.04L798.18 490.04z" stroke="rgba(0, 204, 102, 1)"></path><path d="M913.47 181.58L967.44 181.58L967.44 235.55L913.47 235.55z" stroke="rgba(0, 204, 102, 1)"></path><path d="M418.54 232.56L429.76 232.56L429.76 259.43L418.54 259.43z" stroke="rgba(0, 204, 102, 1)"></path><path d="M716.12 14.19 a40.79 40.79 0 1 0 81.58 0 a40.79 40.79 0 1 0 -81.58 0z" stroke="rgba(0, 204, 102, 1)"></path><path d="M1280.22 412.06L1286.84 412.06L1286.84 418.68L1280.22 418.68z" stroke="rgba(0, 204, 102, 1)"></path></g><defs><mask id="SvgjsMask1001"><rect width="1440" height="560" fill="#ffffff"></rect></mask></defs></svg>