<svg xmlns="http://www.w3.org/2000/svg" version="1.1" xmlns:xlink="http://www.w3.org/1999/xlink" xmlns:svgjs="http://svgjs.com/svgjs" width="1440" height="560" preserveAspectRatio="none" viewBox="0 0 1440 560"><g mask="url(&quot;#SvgjsMask1563&quot;)" fill="none"><path d="M238.52 382.08L249.9 387.93 246.69 400.33 258.08 406.18 254.87 418.58 266.26 424.44 263.04 436.83M231.21 385.35L242.6 391.2 239.39 403.6 250.78 409.45 247.57 421.85 258.96 427.71 255.74 440.1" stroke="rgba(255, 51, 153, 1)" stroke-width="1" stroke-dasharray="3, 3"></path><rect width="325" height="325" clip-path="url(&quot;#SvgjsClipPath1564&quot;)" x="-9.03" y="21.06" fill="url(#SvgjsPattern1565)" transform="rotate(247.35, 153.47, 183.56)"></rect><path d="M399.27 566.9399999999999 L551.28 658.9499999999999L544.710924296913 543.5090757030869z" stroke="rgba(255, 51, 153, 1)" stroke-width="1" stroke-dasharray="2, 2"></path><rect width="60" height="60" clip-path="url(&quot;#SvgjsClipPath1566&quot;)" x="1161.69" y="98.81" fill="url(#SvgjsPattern1567)" transform="rotate(231.65, 1191.69, 128.81)"></rect><rect width="232.20000000000002" height="232.20000000000002" clip-path="url(&quot;#SvgjsClipPath1568&quot;)" x="1013.1" y="288.24" fill="url(#SvgjsPattern1569)" transform="rotate(134.9, 1129.2, 404.34)"></rect><circle r="46.666666666666664" cx="884.08" cy="111.56" stroke="rgba(255, 51, 153, 1)" stroke-width="1" stroke-dasharray="4, 4"></circle><rect width="372.96000000000004" height="372.96000000000004" clip-path="url(&quot;#SvgjsClipPath1570&quot;)" x="1023.64" y="-7.66" fill="url(#SvgjsPattern1571)" transform="rotate(272.85, 1210.12, 178.82)"></rect><rect width="274.4" height="274.4" clip-path="url(&quot;#SvgjsClipPath1572&quot;)" x="251.06" y="274.45" fill="url(#SvgjsPattern1573)" transform="rotate(111.3, 388.26, 411.65)"></rect><rect width="301.28" height="301.28" clip-path="url(&quot;#SvgjsClipPath1574&quot;)" x="-72.5" y="252.67" fill="url(#SvgjsPattern1575)" transform="rotate(334.04, 78.14, 403.31)"></rect><path d="M747.39 54.5L735.56 49.58 737.77 36.96 725.94 32.05 728.14 19.43 716.32 14.51 718.52 1.9" stroke="rgba(255, 51, 153, 1)" stroke-width="1.1" stroke-dasharray="3, 3"></path><rect width="88.6" height="88.6" clip-path="url(&quot;#SvgjsClipPath1576&quot;)" x="1186.48" y="228.9" fill="url(#SvgjsPattern1577)" transform="rotate(120.17, 1230.78, 273.2)"></rect><rect width="324" height="324" clip-path="url(&quot;#SvgjsClipPath1578&quot;)" x="576.48" y="28.2" fill="url(#SvgjsPattern1579)" transform="rotate(205.19, 738.48, 190.2)"></rect></g><defs><mask id="SvgjsMask1563"><rect width="1440" height="560" fill="#ffffff"></rect></mask><pattern x="0" y="0" width="12.5" height="12.5" patternUnits="userSpaceOnUse" id="SvgjsPattern1565"><path d="M0 12.5L6.25 0L12.5 12.5" stroke="rgba(255, 51, 153, 1)" fill="none"></path></pattern><clipPath id="SvgjsClipPath1564"><circle r="81.25" cx="153.47" cy="183.56"></circle></clipPath><pattern x="0" y="0" width="6" height="6" patternUnits="userSpaceOnUse" id="SvgjsPattern1567"><path d="M3 1L3 5M1 3L5 3" stroke="rgba(255, 51, 153, 1)" fill="none" stroke-width="1.37"></path></pattern><clipPath id="SvgjsClipPath1566"><circle r="15" cx="1191.69" cy="128.81"></circle></clipPath><pattern x="0" y="0" width="7.74" height="7.74" patternUnits="userSpaceOnUse" id="SvgjsPattern1569"><path d="M0 7.74L3.87 0L7.74 7.74" stroke="rgba(255, 51, 153, 1)" fill="none"></path></pattern><clipPath id="SvgjsClipPath1568"><circle r="58.050000000000004" cx="1129.2" cy="404.34"></circle></clipPath><pattern x="0" y="0" width="13.32" height="13.32" patternUnits="userSpaceOnUse" id="SvgjsPattern1571"><path d="M0 13.32L6.66 0L13.32 13.32" stroke="rgba(255, 51, 153, 1)" fill="none"></path></pattern><clipPath id="SvgjsClipPath1570"><circle r="93.24000000000001" cx="1210.12" cy="178.82"></circle></clipPath><pattern x="0" y="0" width="274.4" height="13.72" patternUnits="userSpaceOnUse" id="SvgjsPattern1573"><rect width="274.4" height="6.86" x="0" y="0" fill="rgba(255, 51, 153, 1)"></rect><rect width="274.4" height="6.86" x="0" y="6.86" fill="rgba(0, 0, 0, 0)"></rect></pattern><clipPath id="SvgjsClipPath1572"><circle r="68.6" cx="388.26" cy="411.65"></circle></clipPath><pattern x="0" y="0" width="10.76" height="10.76" patternUnits="userSpaceOnUse" id="SvgjsPattern1575"><path d="M5.38 1L5.38 9.76M1 5.38L9.76 5.38" stroke="rgba(255, 51, 153, 1)" fill="none" stroke-width="4.23"></path></pattern><clipPath id="SvgjsClipPath1574"><circle r="75.32" cx="78.14" cy="403.31"></circle></clipPath><pattern x="0" y="0" width="88.6" height="8.86" patternUnits="userSpaceOnUse" id="SvgjsPattern1577"><rect width="88.6" height="4.43" x="0" y="0" fill="rgba(255, 51, 153, 1)"></rect><rect width="88.6" height="4.43" x="0" y="4.43" fill="rgba(0, 0, 0, 0)"></rect></pattern><clipPath id="SvgjsClipPath1576"><circle r="22.15" cx="1230.78" cy="273.2"></circle></clipPath><pattern x="0" y="0" width="6" height="6" patternUnits="userSpaceOnUse" id="SvgjsPattern1579"><path d="M3 1L3 5M1 3L5 3" stroke="rgba(255, 51, 153, 1)" fill="none" stroke-width="1"></path></pattern><clipPath id="SvgjsClipPath1578"><circle r="81" cx="738.48" cy="190.2"></circle></clipPath></defs></svg>