<svg xmlns="http://www.w3.org/2000/svg" version="1.1" xmlns:xlink="http://www.w3.org/1999/xlink" xmlns:svgjs="http://svgjs.com/svgjs" width="1440" height="560" preserveAspectRatio="none" viewBox="0 0 1440 560"><g mask="url(&quot;#SvgjsMask1034&quot;)" fill="none"><path d="M741.09 384.9L765.79 384.9L765.79 409.6L741.09 409.6z" fill="rgba(0, 204, 153, 1)"></path><path d="M48.09 412.64a29.32 29.32 0 1 0-38.62-44.13z" stroke="rgba(0, 204, 153, 1)"></path><path d="M197.9 85.32a28.23 28.23 0 1 0-54.86 13.34z" fill="rgba(0, 204, 153, 1)"></path><path d="M846.24 337.46L864.07 337.46L864.07 362.6L846.24 362.6z" fill="rgba(0, 204, 153, 1)"></path><path d="M1424.3 417.03 a13.4 13.4 0 1 0 26.8 0 a13.4 13.4 0 1 0 -26.8 0z" stroke="rgba(0, 204, 153, 1)"></path><path d="M1124.79 350.2 a43.19 43.19 0 1 0 86.38 0 a43.19 43.19 0 1 0 -86.38 0z" stroke="rgba(0, 204, 153, 1)"></path><path d="M244.75 148.27L300.59 148.27L300.59 194.2L244.75 194.2z" fill="rgba(0, 204, 153, 1)"></path><path d="M727.8 329.7a14.88 14.88 0 1 0-22.59 19.38z" fill="rgba(0, 204, 153, 1)"></path><path d="M233.08 172.8L239.5 172.8L239.5 179.22L233.08 179.22z" fill="rgba(0, 204, 153, 1)"></path><path d="M1053.62 60.09 a3.27 3.27 0 1 0 6.54 0 a3.27 3.27 0 1 0 -6.54 0z" fill="rgba(0, 204, 153, 1)"></path><path d="M937.86 252.79 a52.23 52.23 0 1 0 104.46 0 a52.23 52.23 0 1 0 -104.46 0z" fill="rgba(0, 204, 153, 1)"></path><path d="M1097.13 394.4a51.29 51.29 0 1 0 86.62-54.96z" fill="rgba(0, 204, 153, 1)"></path><path d="M638.31 545.32L656.27 545.32L656.27 577.04L638.31 577.04z" stroke="rgba(0, 204, 153, 1)"></path><path d="M666.26 262.73L712.19 262.73L712.19 308.66L666.26 308.66z" fill="rgba(0, 204, 153, 1)"></path><path d="M504.97 332.63L534.52 332.63L534.52 384.47L504.97 384.47z" fill="rgba(0, 204, 153, 1)"></path><path d="M687.57 80.45 a1.48 1.48 0 1 0 2.96 0 a1.48 1.48 0 1 0 -2.96 0z" fill="rgba(0, 204, 153, 1)"></path><path d="M1223.93 22.93 a6.64 6.64 0 1 0 13.28 0 a6.64 6.64 0 1 0 -13.28 0z" stroke="rgba(0, 204, 153, 1)"></path><path d="M325.25 493.7a16.99 16.99 0 1 0 32.75-9.06z" fill="rgba(0, 204, 153, 1)"></path><path d="M579.16 203.48L625.04 203.48L625.04 249.36L579.16 249.36z" fill="rgba(0, 204, 153, 1)"></path><path d="M301.23 343.06a37.47 37.47 0 1 0 4.05 74.83z" fill="rgba(0, 204, 153, 1)"></path><path d="M569.59 303.66L609.52 303.66L609.52 348.79L569.59 348.79z" fill="rgba(0, 204, 153, 1)"></path><path d="M946.57 236.08L976.08 236.08L976.08 265.59L946.57 265.59z" fill="rgba(0, 204, 153, 1)"></path><path d="M385.5 213.52 a13.62 13.62 0 1 0 27.24 0 a13.62 13.62 0 1 0 -27.24 0z" stroke="rgba(0, 204, 153, 1)"></path><path d="M556.72 163.09 a19.11 19.11 0 1 0 38.22 0 a19.11 19.11 0 1 0 -38.22 0z" fill="rgba(0, 204, 153, 1)"></path><path d="M1181.15 259.57L1229.76 259.57L1229.76 308.18L1181.15 308.18z" stroke="rgba(0, 204, 153, 1)"></path><path d="M139.72 128.11L141.41 128.11L141.41 129.8L139.72 129.8z" fill="rgba(0, 204, 153, 1)"></path><path d="M519.27 535.19L551.85 535.19L551.85 567.77L519.27 567.77z" stroke="rgba(0, 204, 153, 1)"></path><path d="M475.37 120.91L527.83 120.91L527.83 161.68L475.37 161.68z" stroke="rgba(0, 204, 153, 1)"></path><path d="M354.41 362.74 a42.71 42.71 0 1 0 85.42 0 a42.71 42.71 0 1 0 -85.42 0z" fill="rgba(0, 204, 153, 1)"></path><path d="M894.64 196.49L925.21 196.49L925.21 210.88L894.64 210.88z" stroke="rgba(0, 204, 153, 1)"></path><path d="M458.41 283.95L486.69 283.95L486.69 312.23L458.41 312.23z" stroke="rgba(0, 204, 153, 1)"></path><path d="M469.87 277.74L475.76 277.74L475.76 333.4L469.87 333.4z" stroke="rgba(0, 204, 153, 1)"></path><path d="M1380.58 266.84a12.72 12.72 0 1 0-5.67 24.8z" stroke="rgba(0, 204, 153, 1)"></path></g><defs><mask id="SvgjsMask1034"><rect width="1440" height="560" fill="#ffffff"></rect></mask></defs></svg>