<svg xmlns="http://www.w3.org/2000/svg" version="1.1" xmlns:xlink="http://www.w3.org/1999/xlink" xmlns:svgjs="http://svgjs.com/svgjs" width="1440" height="560" preserveAspectRatio="none" viewBox="0 0 1440 560"><g mask="url(&quot;#SvgjsMask1380&quot;)" fill="none"><rect width="1440" height="560" x="0" y="0" fill="rgba(237, 243, 255, 1)"></rect><path d="M192.6 549.29a5.6 5.6 0 1 0 10.33 4.33 5.6 5.6 0 1 0-10.33-4.33zM207.36 555.47a5.6 5.6 0 1 0 10.33 4.33 5.6 5.6 0 1 0-10.33-4.33zM222.12 561.65a5.6 5.6 0 1 0 10.33 4.33 5.6 5.6 0 1 0-10.33-4.33zM236.88 567.83a5.6 5.6 0 1 0 10.33 4.33 5.6 5.6 0 1 0-10.33-4.33zM156.9 551.69a5.6 5.6 0 1 0 10.33 4.33 5.6 5.6 0 1 0-10.33-4.33zM171.66 557.87a5.6 5.6 0 1 0 10.33 4.33 5.6 5.6 0 1 0-10.33-4.33zM186.42 564.05a5.6 5.6 0 1 0 10.33 4.33 5.6 5.6 0 1 0-10.33-4.33zM201.18 570.23a5.6 5.6 0 1 0 10.33 4.32 5.6 5.6 0 1 0-10.33-4.32z" fill="rgba(255, 51, 153, 1)"></path><path d="M1182.44 110.04L1188.3 121.42 1178.48 129.64 1184.35 141.03 1174.53 149.25 1180.39 160.63 1170.58 168.85M1174.59 108.46L1180.46 119.84 1170.64 128.06 1176.51 139.44 1166.69 147.67 1172.55 159.05 1162.73 167.27M1166.75 106.87L1172.62 118.26 1162.8 126.48 1168.66 137.86 1158.84 146.08 1164.71 157.47 1154.89 165.69" stroke="rgba(255, 51, 153, 1)" stroke-width="2.93"></path><rect width="288" height="288" clip-path="url(&quot;#SvgjsClipPath1381&quot;)" x="1002.77" y="97.56" fill="url(#SvgjsPattern1382)" transform="rotate(190.03, 1146.77, 241.56)"></rect><path d="M750 403.9 L867.63 478.15L712.6438329344888 537.1961670655112z" stroke="rgba(255, 51, 153, 1)" stroke-width="1.21" stroke-dasharray="3, 2"></path><rect width="60" height="60" clip-path="url(&quot;#SvgjsClipPath1383&quot;)" x="734.49" y="-7.62" fill="url(#SvgjsPattern1384)" transform="rotate(26.72, 764.49, 22.38)"></rect><path d="M385.92 384.29a5.6 5.6 0 1 0 0.66 11.18 5.6 5.6 0 1 0-0.66-11.18zM386.86 400.26a5.6 5.6 0 1 0 0.66 11.18 5.6 5.6 0 1 0-0.66-11.18zM387.8 416.24a5.6 5.6 0 1 0 0.66 11.18 5.6 5.6 0 1 0-0.66-11.18zM388.74 432.21a5.6 5.6 0 1 0 0.66 11.18 5.6 5.6 0 1 0-0.66-11.18zM368.07 353.29a5.6 5.6 0 1 0 0.66 11.18 5.6 5.6 0 1 0-0.66-11.18zM369.01 369.26a5.6 5.6 0 1 0 0.66 11.18 5.6 5.6 0 1 0-0.66-11.18zM369.95 385.23a5.6 5.6 0 1 0 0.66 11.18 5.6 5.6 0 1 0-0.66-11.18zM370.89 401.2a5.6 5.6 0 1 0 0.66 11.18 5.6 5.6 0 1 0-0.66-11.18zM350.22 322.28a5.6 5.6 0 1 0 0.65 11.18 5.6 5.6 0 1 0-0.65-11.18zM351.16 338.25a5.6 5.6 0 1 0 0.66 11.19 5.6 5.6 0 1 0-0.66-11.19zM352.1 354.23a5.6 5.6 0 1 0 0.66 11.18 5.6 5.6 0 1 0-0.66-11.18zM353.04 370.2a5.6 5.6 0 1 0 0.66 11.18 5.6 5.6 0 1 0-0.66-11.18z" fill="rgba(255, 51, 153, 1)"></path><rect width="84" height="84" clip-path="url(&quot;#SvgjsClipPath1385&quot;)" x="841.87" y="5.64" fill="url(#SvgjsPattern1386)" transform="rotate(131.8, 883.87, 47.64)"></rect><rect width="102.72" height="102.72" clip-path="url(&quot;#SvgjsClipPath1387&quot;)" x="-30.55" y="390.97" fill="url(#SvgjsPattern1388)" transform="rotate(220.05, 20.81, 442.33)"></rect><rect width="340.48" height="340.48" clip-path="url(&quot;#SvgjsClipPath1389&quot;)" x="803.27" y="-19.59" fill="url(#SvgjsPattern1390)" transform="rotate(331.57, 973.51, 150.65)"></rect><rect width="240" height="240" clip-path="url(&quot;#SvgjsClipPath1391&quot;)" x="-5.05" y="77.64" fill="url(#SvgjsPattern1392)" transform="rotate(22.77, 114.95, 197.64)"></rect><rect width="276" height="276" clip-path="url(&quot;#SvgjsClipPath1393&quot;)" x="1289.87" y="-46.01" fill="url(#SvgjsPattern1394)" transform="rotate(344.79, 1427.87, 91.99)"></rect><rect width="119.8" height="119.8" clip-path="url(&quot;#SvgjsClipPath1395&quot;)" x="538.18" y="94.78" fill="url(#SvgjsPattern1396)" transform="rotate(211.78, 598.08, 154.68)"></rect></g><defs><mask id="SvgjsMask1380"><rect width="1440" height="560" fill="#ffffff"></rect></mask><pattern x="0" y="0" width="6" height="6" patternUnits="userSpaceOnUse" id="SvgjsPattern1382"><path d="M0 6L3 0L6 6" stroke="rgba(255, 51, 153, 1)" fill="none"></path></pattern><clipPath id="SvgjsClipPath1381"><circle r="72" cx="1146.77" cy="241.56"></circle></clipPath><pattern x="0" y="0" width="60" height="6" patternUnits="userSpaceOnUse" id="SvgjsPattern1384"><rect width="60" height="3" x="0" y="0" fill="rgba(255, 51, 153, 1)"></rect><rect width="60" height="3" x="0" y="3" fill="rgba(0, 0, 0, 0)"></rect></pattern><clipPath id="SvgjsClipPath1383"><circle r="15" cx="764.49" cy="22.38"></circle></clipPath><pattern x="0" y="0" width="84" height="6" patternUnits="userSpaceOnUse" id="SvgjsPattern1386"><rect width="84" height="3" x="0" y="0" fill="rgba(255, 51, 153, 1)"></rect><rect width="84" height="3" x="0" y="3" fill="rgba(0, 0, 0, 0)"></rect></pattern><clipPath id="SvgjsClipPath1385"><circle r="21" cx="883.87" cy="47.64"></circle></clipPath><pattern x="0" y="0" width="102.72" height="6.42" patternUnits="userSpaceOnUse" id="SvgjsPattern1388"><rect width="102.72" height="3.21" x="0" y="0" fill="rgba(255, 51, 153, 1)"></rect><rect width="102.72" height="3.21" x="0" y="3.21" fill="rgba(0, 0, 0, 0)"></rect></pattern><clipPath id="SvgjsClipPath1387"><circle r="25.68" cx="20.81" cy="442.33"></circle></clipPath><pattern x="0" y="0" width="10.64" height="10.64" patternUnits="userSpaceOnUse" id="SvgjsPattern1390"><path d="M0 10.64L5.32 0L10.64 10.64" stroke="rgba(255, 51, 153, 1)" fill="none"></path></pattern><clipPath id="SvgjsClipPath1389"><circle r="85.12" cx="973.51" cy="150.65"></circle></clipPath><pattern x="0" y="0" width="240" height="6" patternUnits="userSpaceOnUse" id="SvgjsPattern1392"><rect width="240" height="3" x="0" y="0" fill="rgba(255, 51, 153, 1)"></rect><rect width="240" height="3" x="0" y="3" fill="rgba(0, 0, 0, 0)"></rect></pattern><clipPath id="SvgjsClipPath1391"><circle r="60" cx="114.95" cy="197.64"></circle></clipPath><pattern x="0" y="0" width="6" height="6" patternUnits="userSpaceOnUse" id="SvgjsPattern1394"><path d="M0 6L3 0L6 6" stroke="rgba(255, 51, 153, 1)" fill="none"></path></pattern><clipPath id="SvgjsClipPath1393"><circle r="69" cx="1427.87" cy="91.99"></circle></clipPath><pattern x="0" y="0" width="11.98" height="11.98" patternUnits="userSpaceOnUse" id="SvgjsPattern1396"><path d="M5.99 1L5.99 10.98M1 5.99L10.98 5.99" stroke="rgba(255, 51, 153, 1)" fill="none" stroke-width="1.12"></path></pattern><clipPath id="SvgjsClipPath1395"><circle r="29.95" cx="598.08" cy="154.68"></circle></clipPath></defs></svg>