<svg xmlns="http://www.w3.org/2000/svg" version="1.1" xmlns:xlink="http://www.w3.org/1999/xlink" xmlns:svgjs="http://svgjs.com/svgjs" width="1440" height="560" preserveAspectRatio="none" viewBox="0 0 1440 560"><g mask="url(&quot;#SvgjsMask1003&quot;)" fill="none"><rect width="1440" height="560" x="0" y="0" fill="rgba(237, 243, 255, 1)"></rect><path d="M45.53 -39.14L110.48 -1.64L110.48 73.36L45.53 110.86L-19.42 73.36L-19.42 -1.64zM110.48 73.36L175.44 110.86L175.44 185.86L110.48 223.36L45.53 185.86L45.53 110.86zM45.53 185.86L110.48 223.36L110.48 298.36L45.53 335.86L-19.42 298.36L-19.42 223.36zM45.53 410.86L110.48 448.36L110.48 523.36L45.53 560.86L-19.42 523.36L-19.42 448.36zM110.48 523.36L175.44 560.86L175.44 635.86L110.48 673.36L45.53 635.86L45.53 560.86zM175.44 -39.14L240.39 -1.64L240.39 73.36L175.44 110.86L110.48 73.36L110.48 -1.64zM240.39 73.36L305.35 110.86L305.35 185.86L240.39 223.36L175.44 185.86L175.44 110.86zM240.39 298.36L305.35 335.86L305.35 410.86L240.39 448.36L175.44 410.86L175.44 335.86zM175.44 410.86L240.39 448.36L240.39 523.36L175.44 560.86L110.48 523.36L110.48 448.36zM370.3 73.36L435.25 110.86L435.25 185.86L370.3 223.36L305.35 185.86L305.35 110.86zM370.3 298.36L435.25 335.86L435.25 410.86L370.3 448.36L305.35 410.86L305.35 335.86zM435.25 -39.14L500.21 -1.64L500.21 73.36L435.25 110.86L370.3 73.36L370.3 -1.64zM630.11 73.36L695.07 110.86L695.07 185.86L630.11 223.36L565.16 185.86L565.16 110.86zM565.16 185.86L630.11 223.36L630.11 298.36L565.16 335.86L500.21 298.36L500.21 223.36zM565.16 410.86L630.11 448.36L630.11 523.36L565.16 560.86L500.21 523.36L500.21 448.36zM760.02 73.36L824.98 110.86L824.98 185.86L760.02 223.36L695.07 185.86L695.07 110.86zM889.93 298.36L954.88 335.86L954.88 410.86L889.93 448.36L824.97 410.86L824.97 335.86zM824.97 410.86L889.93 448.36L889.93 523.36L824.97 560.86L760.02 523.36L760.02 448.36zM1019.84 73.36L1084.79 110.86L1084.79 185.86L1019.84 223.36L954.88 185.86L954.88 110.86zM1019.84 298.36L1084.79 335.86L1084.79 410.86L1019.84 448.36L954.88 410.86L954.88 335.86zM954.88 410.86L1019.84 448.36L1019.84 523.36L954.88 560.86L889.93 523.36L889.93 448.36zM1019.84 523.36L1084.79 560.86L1084.79 635.86L1019.84 673.36L954.88 635.86L954.88 560.86zM1149.74 73.36L1214.7 110.86L1214.7 185.86L1149.74 223.36L1084.79 185.86L1084.79 110.86zM1149.74 523.36L1214.7 560.86L1214.7 635.86L1149.74 673.36L1084.79 635.86L1084.79 560.86zM1214.7 -39.14L1279.65 -1.64L1279.65 73.36L1214.7 110.86L1149.74 73.36L1149.74 -1.64zM1279.65 298.36L1344.6 335.86L1344.6 410.86L1279.65 448.36L1214.7 410.86L1214.7 335.86zM1214.7 410.86L1279.65 448.36L1279.65 523.36L1214.7 560.86L1149.74 523.36L1149.74 448.36zM1279.65 523.36L1344.6 560.86L1344.6 635.86L1279.65 673.36L1214.7 635.86L1214.7 560.86zM1409.56 73.36L1474.51 110.86L1474.51 185.86L1409.56 223.36L1344.61 185.86L1344.61 110.86zM1474.51 -39.14L1539.47 -1.64L1539.47 73.36L1474.51 110.86L1409.56 73.36L1409.56 -1.64zM1539.47 298.36L1604.42 335.86L1604.42 410.86L1539.47 448.36L1474.51 410.86L1474.51 335.86zM1474.51 410.86L1539.47 448.36L1539.47 523.36L1474.51 560.86L1409.56 523.36L1409.56 448.36z" stroke="rgba(0, 102, 0, 1)" stroke-width="2"></path><path d="M38.03 -39.14 a7.5 7.5 0 1 0 15 0 a7.5 7.5 0 1 0 -15 0zM102.98 -1.64 a7.5 7.5 0 1 0 15 0 a7.5 7.5 0 1 0 -15 0zM102.98 73.36 a7.5 7.5 0 1 0 15 0 a7.5 7.5 0 1 0 -15 0zM38.03 110.86 a7.5 7.5 0 1 0 15 0 a7.5 7.5 0 1 0 -15 0zM-26.92 73.36 a7.5 7.5 0 1 0 15 0 a7.5 7.5 0 1 0 -15 0zM-26.92 -1.64 a7.5 7.5 0 1 0 15 0 a7.5 7.5 0 1 0 -15 0zM167.94 110.86 a7.5 7.5 0 1 0 15 0 a7.5 7.5 0 1 0 -15 0zM167.94 185.86 a7.5 7.5 0 1 0 15 0 a7.5 7.5 0 1 0 -15 0zM102.98 223.36 a7.5 7.5 0 1 0 15 0 a7.5 7.5 0 1 0 -15 0zM38.03 185.86 a7.5 7.5 0 1 0 15 0 a7.5 7.5 0 1 0 -15 0zM102.98 298.36 a7.5 7.5 0 1 0 15 0 a7.5 7.5 0 1 0 -15 0zM38.03 335.86 a7.5 7.5 0 1 0 15 0 a7.5 7.5 0 1 0 -15 0zM-26.92 298.36 a7.5 7.5 0 1 0 15 0 a7.5 7.5 0 1 0 -15 0zM-26.92 223.36 a7.5 7.5 0 1 0 15 0 a7.5 7.5 0 1 0 -15 0zM38.03 410.86 a7.5 7.5 0 1 0 15 0 a7.5 7.5 0 1 0 -15 0zM102.98 448.36 a7.5 7.5 0 1 0 15 0 a7.5 7.5 0 1 0 -15 0zM102.98 523.36 a7.5 7.5 0 1 0 15 0 a7.5 7.5 0 1 0 -15 0zM38.03 560.86 a7.5 7.5 0 1 0 15 0 a7.5 7.5 0 1 0 -15 0zM-26.92 523.36 a7.5 7.5 0 1 0 15 0 a7.5 7.5 0 1 0 -15 0zM-26.92 448.36 a7.5 7.5 0 1 0 15 0 a7.5 7.5 0 1 0 -15 0zM167.94 560.86 a7.5 7.5 0 1 0 15 0 a7.5 7.5 0 1 0 -15 0zM167.94 635.86 a7.5 7.5 0 1 0 15 0 a7.5 7.5 0 1 0 -15 0zM102.98 673.36 a7.5 7.5 0 1 0 15 0 a7.5 7.5 0 1 0 -15 0zM38.03 635.86 a7.5 7.5 0 1 0 15 0 a7.5 7.5 0 1 0 -15 0zM167.94 -39.14 a7.5 7.5 0 1 0 15 0 a7.5 7.5 0 1 0 -15 0zM232.89 -1.64 a7.5 7.5 0 1 0 15 0 a7.5 7.5 0 1 0 -15 0zM232.89 73.36 a7.5 7.5 0 1 0 15 0 a7.5 7.5 0 1 0 -15 0zM297.85 110.86 a7.5 7.5 0 1 0 15 0 a7.5 7.5 0 1 0 -15 0zM297.85 185.86 a7.5 7.5 0 1 0 15 0 a7.5 7.5 0 1 0 -15 0zM232.89 223.36 a7.5 7.5 0 1 0 15 0 a7.5 7.5 0 1 0 -15 0zM232.89 298.36 a7.5 7.5 0 1 0 15 0 a7.5 7.5 0 1 0 -15 0zM297.85 335.86 a7.5 7.5 0 1 0 15 0 a7.5 7.5 0 1 0 -15 0zM297.85 410.86 a7.5 7.5 0 1 0 15 0 a7.5 7.5 0 1 0 -15 0zM232.89 448.36 a7.5 7.5 0 1 0 15 0 a7.5 7.5 0 1 0 -15 0zM167.94 410.86 a7.5 7.5 0 1 0 15 0 a7.5 7.5 0 1 0 -15 0zM167.94 335.86 a7.5 7.5 0 1 0 15 0 a7.5 7.5 0 1 0 -15 0zM232.89 523.36 a7.5 7.5 0 1 0 15 0 a7.5 7.5 0 1 0 -15 0zM362.8 73.36 a7.5 7.5 0 1 0 15 0 a7.5 7.5 0 1 0 -15 0zM427.75 110.86 a7.5 7.5 0 1 0 15 0 a7.5 7.5 0 1 0 -15 0zM427.75 185.86 a7.5 7.5 0 1 0 15 0 a7.5 7.5 0 1 0 -15 0zM362.8 223.36 a7.5 7.5 0 1 0 15 0 a7.5 7.5 0 1 0 -15 0zM362.8 298.36 a7.5 7.5 0 1 0 15 0 a7.5 7.5 0 1 0 -15 0zM427.75 335.86 a7.5 7.5 0 1 0 15 0 a7.5 7.5 0 1 0 -15 0zM427.75 410.86 a7.5 7.5 0 1 0 15 0 a7.5 7.5 0 1 0 -15 0zM362.8 448.36 a7.5 7.5 0 1 0 15 0 a7.5 7.5 0 1 0 -15 0zM427.75 -39.14 a7.5 7.5 0 1 0 15 0 a7.5 7.5 0 1 0 -15 0zM492.71 -1.64 a7.5 7.5 0 1 0 15 0 a7.5 7.5 0 1 0 -15 0zM492.71 73.36 a7.5 7.5 0 1 0 15 0 a7.5 7.5 0 1 0 -15 0zM362.8 -1.64 a7.5 7.5 0 1 0 15 0 a7.5 7.5 0 1 0 -15 0zM622.61 73.36 a7.5 7.5 0 1 0 15 0 a7.5 7.5 0 1 0 -15 0zM687.57 110.86 a7.5 7.5 0 1 0 15 0 a7.5 7.5 0 1 0 -15 0zM687.57 185.86 a7.5 7.5 0 1 0 15 0 a7.5 7.5 0 1 0 -15 0zM622.61 223.36 a7.5 7.5 0 1 0 15 0 a7.5 7.5 0 1 0 -15 0zM557.66 185.86 a7.5 7.5 0 1 0 15 0 a7.5 7.5 0 1 0 -15 0zM557.66 110.86 a7.5 7.5 0 1 0 15 0 a7.5 7.5 0 1 0 -15 0zM622.61 298.36 a7.5 7.5 0 1 0 15 0 a7.5 7.5 0 1 0 -15 0zM557.66 335.86 a7.5 7.5 0 1 0 15 0 a7.5 7.5 0 1 0 -15 0zM492.71 298.36 a7.5 7.5 0 1 0 15 0 a7.5 7.5 0 1 0 -15 0zM492.71 223.36 a7.5 7.5 0 1 0 15 0 a7.5 7.5 0 1 0 -15 0zM557.66 410.86 a7.5 7.5 0 1 0 15 0 a7.5 7.5 0 1 0 -15 0zM622.61 448.36 a7.5 7.5 0 1 0 15 0 a7.5 7.5 0 1 0 -15 0zM622.61 523.36 a7.5 7.5 0 1 0 15 0 a7.5 7.5 0 1 0 -15 0zM557.66 560.86 a7.5 7.5 0 1 0 15 0 a7.5 7.5 0 1 0 -15 0zM492.71 523.36 a7.5 7.5 0 1 0 15 0 a7.5 7.5 0 1 0 -15 0zM492.71 448.36 a7.5 7.5 0 1 0 15 0 a7.5 7.5 0 1 0 -15 0zM752.52 73.36 a7.5 7.5 0 1 0 15 0 a7.5 7.5 0 1 0 -15 0zM817.48 110.86 a7.5 7.5 0 1 0 15 0 a7.5 7.5 0 1 0 -15 0zM817.48 185.86 a7.5 7.5 0 1 0 15 0 a7.5 7.5 0 1 0 -15 0zM752.52 223.36 a7.5 7.5 0 1 0 15 0 a7.5 7.5 0 1 0 -15 0zM882.43 298.36 a7.5 7.5 0 1 0 15 0 a7.5 7.5 0 1 0 -15 0zM947.38 335.86 a7.5 7.5 0 1 0 15 0 a7.5 7.5 0 1 0 -15 0zM947.38 410.86 a7.5 7.5 0 1 0 15 0 a7.5 7.5 0 1 0 -15 0zM882.43 448.36 a7.5 7.5 0 1 0 15 0 a7.5 7.5 0 1 0 -15 0zM817.47 410.86 a7.5 7.5 0 1 0 15 0 a7.5 7.5 0 1 0 -15 0zM817.47 335.86 a7.5 7.5 0 1 0 15 0 a7.5 7.5 0 1 0 -15 0zM882.43 523.36 a7.5 7.5 0 1 0 15 0 a7.5 7.5 0 1 0 -15 0zM817.47 560.86 a7.5 7.5 0 1 0 15 0 a7.5 7.5 0 1 0 -15 0zM752.52 523.36 a7.5 7.5 0 1 0 15 0 a7.5 7.5 0 1 0 -15 0zM752.52 448.36 a7.5 7.5 0 1 0 15 0 a7.5 7.5 0 1 0 -15 0zM1012.34 73.36 a7.5 7.5 0 1 0 15 0 a7.5 7.5 0 1 0 -15 0zM1077.29 110.86 a7.5 7.5 0 1 0 15 0 a7.5 7.5 0 1 0 -15 0zM1077.29 185.86 a7.5 7.5 0 1 0 15 0 a7.5 7.5 0 1 0 -15 0zM1012.34 223.36 a7.5 7.5 0 1 0 15 0 a7.5 7.5 0 1 0 -15 0zM947.38 185.86 a7.5 7.5 0 1 0 15 0 a7.5 7.5 0 1 0 -15 0zM947.38 110.86 a7.5 7.5 0 1 0 15 0 a7.5 7.5 0 1 0 -15 0zM1012.34 298.36 a7.5 7.5 0 1 0 15 0 a7.5 7.5 0 1 0 -15 0zM1077.29 335.86 a7.5 7.5 0 1 0 15 0 a7.5 7.5 0 1 0 -15 0zM1077.29 410.86 a7.5 7.5 0 1 0 15 0 a7.5 7.5 0 1 0 -15 0zM1012.34 448.36 a7.5 7.5 0 1 0 15 0 a7.5 7.5 0 1 0 -15 0zM1012.34 523.36 a7.5 7.5 0 1 0 15 0 a7.5 7.5 0 1 0 -15 0zM947.38 560.86 a7.5 7.5 0 1 0 15 0 a7.5 7.5 0 1 0 -15 0zM1077.29 560.86 a7.5 7.5 0 1 0 15 0 a7.5 7.5 0 1 0 -15 0zM1077.29 635.86 a7.5 7.5 0 1 0 15 0 a7.5 7.5 0 1 0 -15 0zM1012.34 673.36 a7.5 7.5 0 1 0 15 0 a7.5 7.5 0 1 0 -15 0zM947.38 635.86 a7.5 7.5 0 1 0 15 0 a7.5 7.5 0 1 0 -15 0zM1142.24 73.36 a7.5 7.5 0 1 0 15 0 a7.5 7.5 0 1 0 -15 0zM1207.2 110.86 a7.5 7.5 0 1 0 15 0 a7.5 7.5 0 1 0 -15 0zM1207.2 185.86 a7.5 7.5 0 1 0 15 0 a7.5 7.5 0 1 0 -15 0zM1142.24 223.36 a7.5 7.5 0 1 0 15 0 a7.5 7.5 0 1 0 -15 0zM1142.24 523.36 a7.5 7.5 0 1 0 15 0 a7.5 7.5 0 1 0 -15 0zM1207.2 560.86 a7.5 7.5 0 1 0 15 0 a7.5 7.5 0 1 0 -15 0zM1207.2 635.86 a7.5 7.5 0 1 0 15 0 a7.5 7.5 0 1 0 -15 0zM1142.24 673.36 a7.5 7.5 0 1 0 15 0 a7.5 7.5 0 1 0 -15 0zM1207.2 -39.14 a7.5 7.5 0 1 0 15 0 a7.5 7.5 0 1 0 -15 0zM1272.15 -1.64 a7.5 7.5 0 1 0 15 0 a7.5 7.5 0 1 0 -15 0zM1272.15 73.36 a7.5 7.5 0 1 0 15 0 a7.5 7.5 0 1 0 -15 0zM1142.24 -1.64 a7.5 7.5 0 1 0 15 0 a7.5 7.5 0 1 0 -15 0zM1272.15 298.36 a7.5 7.5 0 1 0 15 0 a7.5 7.5 0 1 0 -15 0zM1337.1 335.86 a7.5 7.5 0 1 0 15 0 a7.5 7.5 0 1 0 -15 0zM1337.1 410.86 a7.5 7.5 0 1 0 15 0 a7.5 7.5 0 1 0 -15 0zM1272.15 448.36 a7.5 7.5 0 1 0 15 0 a7.5 7.5 0 1 0 -15 0zM1207.2 410.86 a7.5 7.5 0 1 0 15 0 a7.5 7.5 0 1 0 -15 0zM1207.2 335.86 a7.5 7.5 0 1 0 15 0 a7.5 7.5 0 1 0 -15 0zM1272.15 523.36 a7.5 7.5 0 1 0 15 0 a7.5 7.5 0 1 0 -15 0zM1142.24 448.36 a7.5 7.5 0 1 0 15 0 a7.5 7.5 0 1 0 -15 0zM1337.1 560.86 a7.5 7.5 0 1 0 15 0 a7.5 7.5 0 1 0 -15 0zM1337.1 635.86 a7.5 7.5 0 1 0 15 0 a7.5 7.5 0 1 0 -15 0zM1272.15 673.36 a7.5 7.5 0 1 0 15 0 a7.5 7.5 0 1 0 -15 0zM1402.06 73.36 a7.5 7.5 0 1 0 15 0 a7.5 7.5 0 1 0 -15 0zM1467.01 110.86 a7.5 7.5 0 1 0 15 0 a7.5 7.5 0 1 0 -15 0zM1467.01 185.86 a7.5 7.5 0 1 0 15 0 a7.5 7.5 0 1 0 -15 0zM1402.06 223.36 a7.5 7.5 0 1 0 15 0 a7.5 7.5 0 1 0 -15 0zM1337.11 185.86 a7.5 7.5 0 1 0 15 0 a7.5 7.5 0 1 0 -15 0zM1337.11 110.86 a7.5 7.5 0 1 0 15 0 a7.5 7.5 0 1 0 -15 0zM1467.01 -39.14 a7.5 7.5 0 1 0 15 0 a7.5 7.5 0 1 0 -15 0zM1531.97 -1.64 a7.5 7.5 0 1 0 15 0 a7.5 7.5 0 1 0 -15 0zM1531.97 73.36 a7.5 7.5 0 1 0 15 0 a7.5 7.5 0 1 0 -15 0zM1402.06 -1.64 a7.5 7.5 0 1 0 15 0 a7.5 7.5 0 1 0 -15 0zM1531.97 298.36 a7.5 7.5 0 1 0 15 0 a7.5 7.5 0 1 0 -15 0zM1596.92 335.86 a7.5 7.5 0 1 0 15 0 a7.5 7.5 0 1 0 -15 0zM1596.92 410.86 a7.5 7.5 0 1 0 15 0 a7.5 7.5 0 1 0 -15 0zM1531.97 448.36 a7.5 7.5 0 1 0 15 0 a7.5 7.5 0 1 0 -15 0zM1467.01 410.86 a7.5 7.5 0 1 0 15 0 a7.5 7.5 0 1 0 -15 0zM1467.01 335.86 a7.5 7.5 0 1 0 15 0 a7.5 7.5 0 1 0 -15 0zM1531.97 523.36 a7.5 7.5 0 1 0 15 0 a7.5 7.5 0 1 0 -15 0zM1467.01 560.86 a7.5 7.5 0 1 0 15 0 a7.5 7.5 0 1 0 -15 0zM1402.06 523.36 a7.5 7.5 0 1 0 15 0 a7.5 7.5 0 1 0 -15 0zM1402.06 448.36 a7.5 7.5 0 1 0 15 0 a7.5 7.5 0 1 0 -15 0z" fill="rgba(0, 102, 0, 1)"></path><path d="M25.81 296.54L69.11 321.54L69.11 371.54L25.81 396.54L-17.49 371.54L-17.49 321.54zM112.42 -3.46L155.72 21.54L155.72 71.54L112.42 96.54L69.11 71.54L69.11 21.54zM155.72 71.54L199.02 96.54L199.02 146.54L155.72 171.54L112.42 146.54L112.42 96.54zM155.72 221.54L199.02 246.54L199.02 296.54L155.72 321.54L112.42 296.54L112.42 246.54zM155.72 371.54L199.02 396.54L199.02 446.54L155.72 471.54L112.42 446.54L112.42 396.54zM242.32 71.54L285.63 96.54L285.63 146.54L242.32 171.54L199.02 146.54L199.02 96.54zM199.02 446.54L242.32 471.54L242.32 521.54L199.02 546.54L155.72 521.54L155.72 471.54zM242.32 521.54L285.63 546.54L285.63 596.54L242.32 621.54L199.02 596.54L199.02 546.54zM285.63 296.54L328.93 321.54L328.93 371.54L285.63 396.54L242.32 371.54L242.32 321.54zM328.93 521.54L372.23 546.54L372.23 596.54L328.93 621.54L285.63 596.54L285.63 546.54zM372.23 -3.46L415.53 21.54L415.53 71.54L372.23 96.54L328.93 71.54L328.93 21.54zM372.23 146.54L415.53 171.54L415.53 221.54L372.23 246.54L328.93 221.54L328.93 171.54zM415.53 221.54L458.84 246.54L458.84 296.54L415.53 321.54L372.23 296.54L372.23 246.54zM415.53 371.54L458.84 396.54L458.84 446.54L415.53 471.54L372.23 446.54L372.23 396.54zM458.84 -3.46L502.14 21.54L502.14 71.54L458.84 96.54L415.53 71.54L415.53 21.54zM502.14 221.54L545.44 246.54L545.44 296.54L502.14 321.54L458.84 296.54L458.84 246.54zM502.14 521.54L545.44 546.54L545.44 596.54L502.14 621.54L458.84 596.54L458.84 546.54zM545.44 -3.46L588.74 21.54L588.74 71.54L545.44 96.54L502.14 71.54L502.14 21.54zM588.74 221.54L632.04 246.54L632.04 296.54L588.74 321.54L545.44 296.54L545.44 246.54zM588.74 371.54L632.04 396.54L632.04 446.54L588.74 471.54L545.44 446.54L545.44 396.54zM588.74 521.54L632.04 546.54L632.04 596.54L588.74 621.54L545.44 596.54L545.44 546.54zM632.04 -3.46L675.35 21.54L675.35 71.54L632.04 96.54L588.74 71.54L588.74 21.54zM675.35 221.54L718.65 246.54L718.65 296.54L675.35 321.54L632.04 296.54L632.04 246.54zM632.04 296.54L675.35 321.54L675.35 371.54L632.04 396.54L588.74 371.54L588.74 321.54zM675.35 521.54L718.65 546.54L718.65 596.54L675.35 621.54L632.04 596.54L632.04 546.54zM718.65 -3.46L761.95 21.54L761.95 71.54L718.65 96.54L675.35 71.54L675.35 21.54zM761.95 221.54L805.25 246.54L805.25 296.54L761.95 321.54L718.65 296.54L718.65 246.54zM718.65 296.54L761.95 321.54L761.95 371.54L718.65 396.54L675.35 371.54L675.35 321.54zM718.65 446.54L761.95 471.54L761.95 521.54L718.65 546.54L675.35 521.54L675.35 471.54zM761.95 521.54L805.25 546.54L805.25 596.54L761.95 621.54L718.65 596.54L718.65 546.54zM805.25 -3.46L848.56 21.54L848.56 71.54L805.25 96.54L761.95 71.54L761.95 21.54zM805.25 146.54L848.56 171.54L848.56 221.54L805.25 246.54L761.95 221.54L761.95 171.54zM805.25 296.54L848.56 321.54L848.56 371.54L805.25 396.54L761.95 371.54L761.95 321.54zM805.25 446.54L848.56 471.54L848.56 521.54L805.25 546.54L761.95 521.54L761.95 471.54zM891.86 -3.46L935.16 21.54L935.16 71.54L891.86 96.54L848.56 71.54L848.56 21.54zM935.16 71.54L978.47 96.54L978.47 146.54L935.16 171.54L891.86 146.54L891.86 96.54zM891.86 146.54L935.16 171.54L935.16 221.54L891.86 246.54L848.56 221.54L848.56 171.54zM891.86 446.54L935.16 471.54L935.16 521.54L891.86 546.54L848.56 521.54L848.56 471.54zM935.16 521.54L978.47 546.54L978.47 596.54L935.16 621.54L891.86 596.54L891.86 546.54zM978.47 -3.46L1021.77 21.54L1021.77 71.54L978.47 96.54L935.16 71.54L935.16 21.54zM1021.77 221.54L1065.07 246.54L1065.07 296.54L1021.77 321.54L978.47 296.54L978.47 246.54zM978.47 296.54L1021.77 321.54L1021.77 371.54L978.47 396.54L935.16 371.54L935.16 321.54zM1021.77 371.54L1065.07 396.54L1065.07 446.54L1021.77 471.54L978.47 446.54L978.47 396.54zM1021.77 521.54L1065.07 546.54L1065.07 596.54L1021.77 621.54L978.47 596.54L978.47 546.54zM1108.37 221.54L1151.67 246.54L1151.67 296.54L1108.37 321.54L1065.07 296.54L1065.07 246.54zM1065.07 296.54L1108.37 321.54L1108.37 371.54L1065.07 396.54L1021.77 371.54L1021.77 321.54zM1151.67 -3.46L1194.98 21.54L1194.98 71.54L1151.67 96.54L1108.37 71.54L1108.37 21.54zM1151.67 146.54L1194.98 171.54L1194.98 221.54L1151.67 246.54L1108.37 221.54L1108.37 171.54zM1194.98 221.54L1238.28 246.54L1238.28 296.54L1194.98 321.54L1151.67 296.54L1151.67 246.54zM1281.58 71.54L1324.88 96.54L1324.88 146.54L1281.58 171.54L1238.28 146.54L1238.28 96.54zM1281.58 521.54L1324.88 546.54L1324.88 596.54L1281.58 621.54L1238.28 596.54L1238.28 546.54zM1324.88 446.54L1368.19 471.54L1368.19 521.54L1324.88 546.54L1281.58 521.54L1281.58 471.54zM1368.19 521.54L1411.49 546.54L1411.49 596.54L1368.19 621.54L1324.88 596.54L1324.88 546.54zM1454.79 71.54L1498.1 96.54L1498.1 146.54L1454.79 171.54L1411.49 146.54L1411.49 96.54zM1411.49 296.54L1454.79 321.54L1454.79 371.54L1411.49 396.54L1368.19 371.54L1368.19 321.54zM1454.79 521.54L1498.1 546.54L1498.1 596.54L1454.79 621.54L1411.49 596.54L1411.49 546.54z" stroke="rgba(51, 153, 51, 1)" stroke-width="2"></path></g><defs><mask id="SvgjsMask1003"><rect width="1440" height="560" fill="#ffffff"></rect></mask></defs></svg>